# xmcd CD database file
# Copyright (C) 1993-2000  Ti Kan
#
# Track frame offsets:
#	900
#	5998
#	21160
#	40935
#	69668
#	86343
#	106283
#	119345
#	142560
#	157190
#	177228
#	201908
#	221305
#	234605
#
# Disc length: 3530 seconds
#
# Revision: 4
# Processed by: cddbd v1.5.2PL0 Copyright (c) Steve Scherf et al.
# Submitted via: xmcd 2.6 PL0
#
DISCID=b20db90e,be0dbe0e
DTITLE=Lou Reed - Magic And Loss
DYEAR=1992
DGENRE=
TTITLE0=Dorita (The Spirit)
TTITLE1=What's Good (The Thesis)
TTITLE2=Power And Glory (The Situation)
TTITLE3=Magician (Internally)
TTITLE4=Sword Of Damocles (Externally)
TTITLE5=Goodby Mass (In A Chapel Bodily Termination)
TTITLE6=Cremation (Ashes To Ashes)
TTITLE7=Dreamin' (Escape)
TTITLE8=No Chance (Regret)
TTITLE9=Warrior King (Revenge)
TTITLE10=Harry's Circumcision (Reverie Gone Astray)
TTITLE11=Gassed And Stoked (Loss)
TTITLE12=Power And Glory, Part II (Magic¥Transformation)
TTITLE13=Magic And Loss (The Summation)
EXTD=YEAR: 1992
EXTT0=
EXTT1=
EXTT2=
EXTT3=
EXTT4=
EXTT5=
EXTT6=
EXTT7=
EXTT8=
EXTT9=
EXTT10=
EXTT11=
EXTT12=
EXTT13=
PLAYORDER=
